<svg id="Layer_1" data-name="Layer 1" xmlns="http://www.w3.org/2000/svg" xmlns:xlink="http://www.w3.org/1999/xlink" viewBox="0 0 899 1297.69"><defs><style>.cls-1{fill:none;}.cls-2{fill:#010132;}.cls-3{opacity:0.1;}.cls-4,.cls-6,.cls-7,.cls-8{fill:#fff;}.cls-5{fill:#f2f2f2;stroke:#f2f2f2;stroke-miterlimit:10;stroke-width:0.25px;}.cls-6{font-size:164.23px;}.cls-6,.cls-8{font-family:OpenSans-Bold, Open Sans;font-weight:700;}.cls-7,.cls-8{font-size:36.87px;}.cls-7{font-family:OpenSans-Light, Open Sans;font-weight:300;}.cls-9{clip-path:url(#clip-path);}.cls-10{clip-path:url(#clip-path-2);}.cls-11{fill:#3dc6e0;}.cls-12{font-size:98.11px;fill:#1f28eb;font-family:ArialRoundedMTBold, Arial Rounded MT Bold;}</style><clipPath id="clip-path"><circle class="cls-1" cx="244.59" cy="979.16" r="44.98"/></clipPath><clipPath id="clip-path-2"><rect class="cls-1" x="199.36" y="934.63" width="92.64" height="92.64" rx="5.56"/></clipPath></defs><path class="cls-2" d="M0,0H852a47,47,0,0,1,47,47V1250.69a47,47,0,0,1-47,47H0a0,0,0,0,1,0,0V0A0,0,0,0,1,0,0Z"/><g class="cls-3"><path class="cls-4" d="M356.42,814.17A14.77,14.77,0,0,1,344,807.7c-5.73-7.9-6.66-22-2.55-38.73L386,587.91c6.1-24.8,22.19-50.19,39.13-61.76,9.61-6.56,18.39-7.77,24.7-3.38l78.35,54.4c5.36,3.72,8.44,10.89,8.92,20.75,1.13,23.09-12.27,55.2-31.17,74.68L383.05,799.26C373.52,809.08,364.12,814.17,356.42,814.17Zm84.85-289.33c-4.44,0-9.57,1.89-15,5.63-16.29,11.13-31.75,35.47-37.58,59.2L344.11,770.72c-3.67,14.92-3.05,26.78,1.74,33.4,7,9.71,21.06,6.26,35.69-8.83L504.42,668.64c20.58-21.22,30.74-52.08,29.85-70.35-.4-8.11-2.82-13.77-7.2-16.81l-78.34-54.4A12.8,12.8,0,0,0,441.27,524.84Z"/><path class="cls-4" d="M353.67,836.3a15.08,15.08,0,0,1-12-5.74c-6.4-7.69-8-21.72-4.5-39.51L375.8,594.47c8.93-45.45,45.65-88.37,66.59-77.84l89.93,45.22c6.19,3.12,10,10.3,11.06,20.76,2.39,24-10.57,59.47-30.13,82.51L384.69,816.48C373.67,829.46,362.61,836.3,353.67,836.3ZM435.4,519.69c-19.9,0-49.35,37.85-56.89,76.22L339.88,792.49c-3.09,15.71-1.86,27.89,3.46,34.29,8.21,9.86,24.16,4.19,39.7-14.11L511.59,661.31c21.36-25.14,30.87-58.92,29-77.94-.87-8.71-3.92-14.45-9.08-17l-89.93-45.22A13.56,13.56,0,0,0,435.4,519.69Z"/><path class="cls-4" d="M351.74,859.79a15.33,15.33,0,0,1-11.39-4.87c-7-7.28-9.37-21.51-6.64-40.06l31.19-212c7.2-48.93,45.2-99.41,68.92-91.56L536,545.18c7.13,2.36,11.79,9.51,13.46,20.67,3.77,25.19-8.24,63.18-28.57,90.32L387.52,834.3C375.17,850.79,362.11,859.79,351.74,859.79Zm76.92-344.6c-22.22,0-54.68,45.88-61,88.8L336.48,816c-2.42,16.45-.51,28.88,5.39,35,8,8.33,24.7,5.28,43.86-20.31L519.12,652.54c21.87-29.21,30.55-65.89,27.6-85.57-1.39-9.28-5.29-15.22-11.26-17.2l-102.2-33.85A14.48,14.48,0,0,0,428.66,515.19Z"/><path class="cls-4" d="M351.13,884.84a15.92,15.92,0,0,1-10.83-4.11c-7.68-6.8-10.88-21.14-9-40.38l22-227C358.41,561,397.4,502.42,424,507.07l115.12,20.07c8.19,1.43,13.78,8.49,16.17,20.43,5.18,25.87-6,67.12-26.48,98.08L391.7,852.56C378,873.28,363,884.84,351.13,884.84ZM421,511.49c-24.86,0-60.26,55.07-64.88,102.61l-22,227c-1.67,17.13,1,29.75,7.55,35.53,9.37,8.3,27.9,3,48.12-27.5L526.93,642.2c22.13-33.38,29.76-72.92,25.7-93.17-2-10.06-6.78-16-13.77-17.24L423.74,511.72A16.37,16.37,0,0,0,421,511.49Z"/><path class="cls-4" d="M351.88,911.21a16.75,16.75,0,0,1-10.14-3.33c-8.41-6.21-12.55-20.57-11.64-40.44l11-241.35c2.54-55.58,42.07-123,71.85-122l128.6,3.67c9.37.27,16,7.18,19.24,20,6.66,26.44-3.36,70.89-23.81,105.7L397.39,871.09C382.39,896.61,365.37,911.21,351.88,911.21Zm60.56-402.46c-27.85,0-66.08,65.51-68.46,117.69l-11,241.35c-.81,17.76,2.72,30.48,10,35.82,12.91,9.52,34.47-5.19,52.44-35.77L535,630.17c22.32-38,28.58-79.4,23.22-100.66-2.75-10.94-8.51-16.84-16.66-17.08l-128.6-3.67Z"/><path class="cls-4" d="M354.17,938.75a17.77,17.77,0,0,1-9.24-2.54c-9.22-5.49-14.39-19.76-14.55-40.18l-2-254.76c-.45-58.62,39.36-135.07,72.21-138.66l142.56-15.55.1,2.33-.1-2.33c10.52-1.15,18.59,5.67,22.72,19.22,8.33,27.32-.12,73.82-20.54,113.09L404.77,889.67C388.69,920.6,369.53,938.75,354.17,938.75ZM545.46,491.61a19.06,19.06,0,0,0-2.11.12L400.79,507.28c-31,3.38-70,78.48-69.55,133.93l2,254.76c.14,18.6,4.53,31,12.67,35.84,14.94,8.9,38.25-9.68,56.71-45.18l140.57-270.3c22-42.24,26.76-86.28,20.16-108C560,497.36,553.83,491.61,545.46,491.61Z"/><path class="cls-4" d="M357.91,967.2a18.48,18.48,0,0,1-7.73-1.65c-10.13-4.62-16.45-18.68-17.8-39.59l-17.2-266.84c-3.95-61.36,35.55-147.48,71.64-156.18L543.7,465.11c11.94-2.88,21.4,3.55,26.65,18.1,10,27.66,3.13,77.08-16.63,120.18L414,908.05C397.29,944.58,375.35,967.2,357.91,967.2Zm186-499.77.21,2.31L387.23,507.57c-34.15,8.23-73,92.94-69.22,151.06l17.2,266.84c1.23,19.14,6.67,31.44,15.73,35.57,17.16,7.83,42.17-15.13,60.82-55.81L551.45,600.57c19.08-41.62,25.85-88.9,16.45-115-4.68-13-12.91-18.48-23.78-15.86Z"/><path class="cls-4" d="M363.88,996.54a20.16,20.16,0,0,1-6.09-.92c-11.15-3.53-18.76-17.23-21.44-38.57L301.61,679.83c-8-63.71,30.61-159.92,70-174.47L543,442c13.48-5,24.52.88,31.07,16.5,11.69,27.87,6.74,80-12.05,126.86L425.37,925.93C408.09,969,383.69,996.54,363.88,996.54ZM543.34,444.3l.31,2.28L372.23,509.92c-37.37,13.81-75.41,108.56-67.84,169l34.75,277.22c2.46,19.64,9.1,31.72,19.19,34.91,19.59,6.2,46.19-21.62,64.67-67.67L559.67,582.79c18.17-45.27,23.14-95.28,12.09-121.62C565.82,447,556.1,442,543.65,446.58Z"/><path class="cls-4" d="M372,1026.42a21.34,21.34,0,0,1-3.84-.34c-12.32-2.17-21.4-15.32-25.56-37L287.8,703.6c-5.59-29.12-1.65-68.07,10.81-106.86,13.81-43,35.39-76.18,56.31-86.56l186-92.29.42,2.24-.42-2.24c15.15-7.52,28-2.44,36.05,14.3,13.73,28.38,11,81.84-6.78,133L439,943C421.54,993.13,394.55,1026.41,372,1026.42ZM553.87,419.2a27.31,27.31,0,0,0-12.11,3.17l-186,92.29c-20.22,10-41.15,42.32-54.62,84.27-11.92,37.13-15.89,75.73-10.61,103.26l54.78,285.45c3.86,20.12,11.87,31.8,23.15,33.79,22.2,3.91,50.17-29.31,68.06-80.78L567.73,562.9c16.95-48.77,19.83-101.32,7-127.8C569.67,424.6,562.47,419.2,553.87,419.2Z"/><path class="cls-4" d="M382.43,1056.53h-.82c-13.65-.45-24.4-12.83-30.26-34.85L273.91,730.6c-7.59-28.53-5.92-68.43,4.57-109.47,12.59-49.22,34.91-88.83,58.27-103.38L537.21,392.9c16.92-10.54,31.69-6.5,41.61,11.37,15.69,28.27,15.38,84-.78,138.6L455,958.8C437.92,1016.58,408.19,1056.53,382.43,1056.53ZM537.72,395.08l.5,2.19L337.76,522.13c-22.66,14.1-44.36,52.73-56.66,100.81-10.19,39.86-11.86,78.42-4.58,105.78L354,1019.79c5.47,20.55,15.05,31.63,27.7,32,24.92.75,54-38.27,70.8-95.09l123-415.92c15.66-52.92,16.15-106.53,1.24-133.41-9.08-16.35-22.75-20-38.5-10.15Z"/><path class="cls-4" d="M395.6,1086.55c-13.83,0-25.34-11.23-32.62-32L260.13,761c-9.75-27.84-10.53-68.58-2.12-111.78,10.74-55.2,33.38-101.49,59.08-120.8L531.63,367.24l.6,2.13-.6-2.13c18.77-14.1,35.74-11.42,47.79,7.55,18.06,28.42,20.41,84.74,6,143.47L473.71,973c-15.59,63.5-46.48,110.14-75.1,113.41A27.75,27.75,0,0,1,395.6,1086.55ZM554.19,363c-6.65,0-13.85,2.81-21.37,8.46L318.28,532.68c-25,18.78-47.06,64-57.56,118-8.16,41.94-7.48,81.31,1.88,108L365.45,1052.2c7.33,20.93,18.72,31.11,33,29.51,27.57-3.15,57.45-48.59,72.66-110.49L582.77,516.5c13.77-56.06,11.63-111.66-5.32-138.33C571.06,368.11,563.12,363,554.19,363Z"/><path class="cls-4" d="M411.7,1116.06c-13.61,0-25.45-10-33.91-28.82L246.67,795c-12.14-27.05-15.54-68.59-9.34-114,8.18-59.83,31.2-114.16,58.65-138.41l228-201.4c20.36-18,40.27-17,54.61,2.66,20.33,27.89,25.64,85.79,13.53,147.5L495.24,985c-13.37,68.15-44.47,121.59-75.63,130A30.59,30.59,0,0,1,411.7,1116.06ZM524.63,343.23l.68,2.06-228,201.4c-26.75,23.64-49.21,76.75-57.21,135.32-6,44-2.8,84.21,8.84,110.16l131.13,292.29c9.53,21.25,23,30.2,39.07,25.9,30.15-8.1,60.33-60.23,73.39-126.78L589.4,489.9c11.75-59.89,6.78-115.82-12.65-142.48-13.6-18.66-31.87-19.41-51.44-2.13Z"/><path class="cls-4" d="M430.85,1144.6c-13.29,0-25.31-8.64-34.76-25.32L233.75,832.57C219,806.45,212.69,764.1,216.56,716.38c5.25-64.72,27.58-125.87,56.89-155.8L513.94,315l.75,2-.75-2c22.24-22.72,44.87-24,62.08-3.52,22.77,27.09,31.37,86.21,21.91,150.62L519.78,994.4c-10.59,72.18-41.33,132.66-74.75,147.08A35.68,35.68,0,0,1,430.85,1144.6ZM515.44,319,275,564.56c-28.61,29.22-50.42,89.05-55.57,152.44-3.75,46.32,2.24,87.29,16.45,112.38l162.34,286.71c12,21.13,28.35,28.54,46.14,20.86,32.45-14,62.34-73.07,72.71-143.65L595.17,461c9.18-62.56,1-119.76-20.81-145.73-16.23-19.31-37.71-18-58.92,3.7Z"/><path class="cls-4" d="M453.27,1171.68c-12.85,0-24.86-7.28-35-21.57L221.66,874c-17.81-25-27.23-68.22-25.86-118.53,1.88-68.9,23-136.63,53.78-172.57L501.32,289l.82,1.91-.82-1.91c24.07-28.09,49.64-32.16,70.18-11.18,25.79,26.35,37.73,84.86,31.17,152.7l-55.17,570c-7.42,76.63-36.43,142.68-72.19,164.36C467.82,1169.43,460.41,1171.68,453.27,1171.68Zm90-902.38c-13.07,0-26.91,7.91-40.3,23.54L251.22,586.68c-30.1,35.13-50.74,101.45-52.58,169-1.33,48.86,7.73,90.69,24.87,114.76l196.57,276.15c15,21.1,34.28,26,54.25,14,34.82-21.11,63.1-85.69,70.36-160.7l55.17-570c6.38-65.94-5.06-122.65-29.86-148C561.8,273.45,552.74,269.3,543.27,269.3Z"/><path class="cls-4" d="M479.14,1196.75c-12.25,0-24-5.91-34.6-17.68L210.7,919.16c-21.26-23.63-34.23-67.72-35.58-121C173.28,725.9,192.65,652,224.48,609.82L485.83,263.7c25.76-34.12,54.5-41.62,78.84-20.58,28.7,24.8,44.55,83.67,41.38,153.64l-27.51,606c-3.59,79-30.81,151.87-67.73,181.29C500.18,1192.53,489.49,1196.75,479.14,1196.75Zm7.58-931.22.89,1.82L226.26,613.46C195.12,654.7,176.16,727.14,178,798c1.32,51.76,13.83,94.51,34.33,117.29l233.84,259.91c18.65,20.74,41.19,22.4,63.44,4.67,36-28.72,62.61-100,66.13-177.42l27.51-606c3.09-68.08-12.18-125.23-39.86-149.15-23.29-20.13-50.9-12.81-75.74,20.09Z"/><path class="cls-4" d="M508.64,1219.2c-11.45,0-22.69-4.56-33.3-13.74L201.21,968.2C176,946.36,159,901.37,154.6,844.77c-5.81-74.86,11.34-154.51,43.68-202.9L467.19,239.48c27.26-40.79,59.33-52.44,88-32,31.88,22.76,52,81.51,52.63,153.3L613,1000.46c.67,81.68-23.36,159.14-61.22,197.32C537.66,1212,523,1219.2,508.64,1219.2Zm-40.49-978,1,1.73L200.2,645.33c-31.68,47.4-48.47,125.45-42.78,198.85,4.27,55.07,20.71,98.76,45.11,119.88l274.14,237.26c23,19.87,49.12,17.2,73.64-7.53,37-37.34,60.52-113.2,59.87-193.27L605,360.88C604.39,291,584.87,233.82,554,211.8c-27.59-19.7-58.54-8.35-84.93,31.14Z"/><path class="cls-4" d="M541.51,1238.12c-10.35,0-20.64-3.19-30.53-9.65L193.58,1021c-29.83-19.49-51.42-65.3-59.25-125.69-10.08-77.79,4-160.53,36.85-215.93l274-462.54c28-47.31,64.42-64.35,97.39-45.59,35.93,20.45,60.26,77.11,65.08,151.57l43.44,670c5.32,82.13-15.34,165.31-52.64,211.91C580.76,1226.78,561,1238.12,541.51,1238.12ZM446.16,218.51l1,1.63-274,462.54c-32.16,54.3-46,135.42-36.11,211.7,7.63,58.83,28.59,103.41,57.52,122.32L512,1224.12c27.6,18,58.46,9.61,84.67-23.11,36.52-45.63,56.75-127.16,51.53-207.7l-43.43-670c-4.71-72.61-28.33-127.8-63.19-147.64-31.89-18.15-67.19-1.54-94.43,44.43Z"/><path class="cls-4" d="M578.23,1253.31a62.23,62.23,0,0,1-26.48-6.1L188.22,1077.6c-35.11-16.38-62-62.83-73.78-127.45-14.35-78.75-3.26-165.84,29-227.27l276-526.38c28.77-54.87,68.72-77.91,106.85-61.63,39.89,17,69.4,72.44,78.93,148.21l87.51,696c10.43,82.92-5.68,169-42.05,224.64C629.42,1236.21,604,1253.31,578.23,1253.31ZM420.49,198l1.08,1.53-276,526.37C114,786.17,103.09,871.57,117.17,948.8c11.49,63.06,37.67,108.36,71.82,124.3l363.54,169.6c33.34,15.56,68.41.1,96.2-42.43,35.64-54.53,51.42-138.93,41.2-220.26L602.41,284c-9.3-74-38-128.06-76.85-144.63-37.07-15.82-75.94,6.67-104,60.16Z"/><path class="cls-4" d="M618.53,1263.76a71.53,71.53,0,0,1-20.56-3.07l-412.38-123c-41.15-12.27-74.14-59-90.49-128.29-18.64-78.92-10.94-169.65,20.11-236.77L389.74,179l1.13,1.42L389.74,179c29-62.71,72.37-92.71,116-80.23,44.33,12.66,79.62,66.1,94.4,143L738,958.35c15.7,81.63,4.35,171.77-29.61,235.23C684,1239.16,652.07,1263.76,618.53,1263.76ZM486.28,100.68c-35.91,0-70.16,29-94.27,81.16L117.47,775.47C87,841.31,79.47,930.3,97.75,1007.71c16,67.71,48.19,113.41,88.35,125.39l412.38,123c39.83,11.88,79.12-12,107.79-65.6,33.3-62.24,44.43-150.65,29-230.72L597.45,243.15C583,168,548.54,115.75,505.27,103.39A68.72,68.72,0,0,0,486.28,100.68Z"/><path class="cls-4" d="M661.46,1268.69a80.83,80.83,0,0,1-11.57-.84L186.2,1201.12c-47.32-6.81-88.33-54.55-109.69-127.69C53.28,993.89,57.18,902.54,86.94,829.06L355.87,165.14l1.18,1.29-1.18-1.29C384.46,94.54,431,56.63,480.31,63.73s91.15,57.72,111.86,135.42L786.93,929.81c21.55,80.86,15.75,171.93-15.53,243.63C745,1234,704.54,1268.68,661.46,1268.69ZM468.59,67.56c-43.95,0-84.57,36.53-110.35,100.17L89.3,831.66c-29.19,72.08-33,161.71-10.23,239.74C100,1143,140.14,1189.79,186.45,1196.46l463.69,66.73c46.31,6.65,90.78-27.9,119-92.48,30.68-70.34,36.38-159.69,15.23-239L589.56,201C569.27,124.92,528.34,75.34,480.07,68.39A81.13,81.13,0,0,0,468.59,67.56Z"/><path class="cls-4" d="M707.77,1267.53H190.59c-54.94,0-104.15-46.74-131.62-125s-27.47-171.75,0-250L317.56,155.7c27.47-78.28,76.68-125,131.62-125h0c54.95,0,104.15,46.73,131.62,125L839.4,892.5c27.47,78.27,27.47,171.74,0,250S762.72,1267.53,707.77,1267.53Zm-389-1110.66L320,158,61.43,894.84c-27,76.81-27,168.52,0,245.34s75.24,122.67,129.16,122.67H707.77c53.92,0,102.2-45.86,129.16-122.67s27-168.53,0-245.34L578.34,158c-27-76.81-75.24-122.67-129.16-122.67S347,81.23,320,158Z"/></g><rect class="cls-5" x="93.8" y="342.89" height="741.87"/><rect class="cls-5" x="143.95" y="777.67" height="100.29" transform="translate(-683.87 971.77) rotate(-90)"/><text/><text class="cls-6" transform="translate(71.56 495.43)">Make a <tspan x="0" y="158.26">Dream.</tspan></text><text class="cls-7" transform="translate(199.65 841.6)"><tspan xml:space="preserve"> “An investment in knowledge pays the </tspan><tspan x="0" y="44.25">best interest.”</tspan></text><text class="cls-7" transform="translate(309.96 1008.89)">Developer</text><text class="cls-8" transform="translate(309.96 969.81)">Sarthak Kumar</text><g class="cls-9"><g class="cls-10"></g></g><circle class="cls-11" cx="93.8" cy="267.67" r="44.98"/><text class="cls-12" transform="translate(69.09 322.93)">“</text></svg>