<svg id="Layer_1" data-name="Layer 1" xmlns="http://www.w3.org/2000/svg" xmlns:xlink="http://www.w3.org/1999/xlink" viewBox="0 0 800 800"><defs><style>.cls-1{fill:none;}.cls-2{fill:#010132;}.cls-3{opacity:0.1;}.cls-4,.cls-6,.cls-7,.cls-8{fill:#fff;}.cls-5{fill:#f2f2f2;stroke:#f2f2f2;stroke-miterlimit:10;stroke-width:2px;}.cls-6{font-size:116.36px;}.cls-6,.cls-8{font-family:OpenSans-Bold, Open Sans;font-weight:700;}.cls-7,.cls-8{font-size:26.12px;}.cls-7{font-family:OpenSans-Light, Open Sans;font-weight:300;}.cls-9{clip-path:url(#clip-path);}.cls-10{clip-path:url(#clip-path-2);}.cls-11{fill:#3dc6e0;}.cls-12{font-size:69.52px;fill:#1f28eb;font-family:ArialRoundedMTBold, Arial Rounded MT Bold;}</style><clipPath id="clip-path"><circle class="cls-1" cx="228.18" cy="629.02" r="31.87"/></clipPath><clipPath id="clip-path-2"><rect class="cls-1" x="196.14" y="597.47" width="65.64" height="65.64" rx="5.56"/></clipPath></defs><rect class="cls-2" x="-0.42" y="-2.06" width="800.83" height="801"/><g class="cls-3"><path class="cls-4" d="M347.16,492.12a8.4,8.4,0,0,1-7.06-3.68c-3.27-4.5-3.8-12.54-1.46-22.06L364,363.25c3.47-14.13,12.64-28.59,22.29-35.18,5.47-3.74,10.47-4.43,14.07-1.93l44.62,31c3.06,2.12,4.81,6.2,5.09,11.82.64,13.15-7,31.44-17.76,42.54l-70,72.14C356.9,489.23,351.55,492.12,347.16,492.12Zm48.33-164.8c-2.53,0-5.45,1.08-8.57,3.21-9.28,6.34-18.09,20.2-21.41,33.72L340.14,467.38c-2.09,8.5-1.73,15.25,1,19,4,5.53,12,3.57,20.33-5l70-72.14c11.72-12.09,17.51-29.67,17-40.07-.22-4.62-1.6-7.85-4.1-9.58l-44.62-31A7.32,7.32,0,0,0,395.49,327.32Z"/><path class="cls-4" d="M345.59,504.73a8.6,8.6,0,0,1-6.84-3.27c-3.64-4.38-4.55-12.37-2.56-22.5l22-112c5.09-25.89,26-50.34,37.93-44.34l51.22,25.76c3.53,1.78,5.71,5.87,6.3,11.83,1.36,13.67-6,33.87-17.16,47l-73.23,86.22C357,500.83,350.68,504.73,345.59,504.73Zm46.56-180.34c-11.34,0-28.11,21.56-32.41,43.41l-22,112c-1.76,9-1.06,15.88,2,19.53,4.67,5.62,13.76,2.39,22.61-8l73.23-86.21c12.16-14.33,17.58-33.57,16.5-44.4-.49-5-2.23-8.23-5.17-9.71l-51.22-25.76A7.82,7.82,0,0,0,392.15,324.39Z"/><path class="cls-4" d="M344.49,518.11a8.69,8.69,0,0,1-6.48-2.77c-4-4.15-5.34-12.25-3.79-22.82L352,371.78c4.1-27.87,25.74-56.63,39.26-52.16l58.21,19.29c4.06,1.34,6.72,5.41,7.67,11.77,2.15,14.35-4.7,36-16.28,51.45l-76,101.46C357.84,513,350.4,518.11,344.49,518.11Zm43.82-196.28c-12.66,0-31.15,26.13-34.75,50.58L335.8,493.15c-1.38,9.37-.29,16.45,3.07,19.94,4.57,4.74,14.07,3,25-11.57l76-101.46c12.46-16.64,17.4-37.53,15.72-48.74-.79-5.29-3-8.67-6.41-9.8l-58.21-19.28A8.25,8.25,0,0,0,388.31,321.83Z"/><path class="cls-4" d="M344.14,532.38A9.08,9.08,0,0,1,338,530c-4.37-3.87-6.19-12-5.13-23l12.56-129.3c2.89-29.8,25.1-63.19,40.28-60.54l65.57,11.43c4.66.81,7.85,4.84,9.21,11.64,3,14.73-3.39,38.23-15.08,55.86L367.25,514C359.43,525.8,350.89,532.38,344.14,532.38ZM384,319.72c-14.16,0-34.32,31.36-36.95,58.44l-12.56,129.3c-.95,9.75.58,16.94,4.3,20.23,5.34,4.73,15.89,1.72,27.42-15.66l78.12-117.86c12.61-19,17-41.53,14.64-53.07-1.15-5.73-3.86-9.12-7.84-9.82l-65.57-11.43A9,9,0,0,0,384,319.72Z"/><path class="cls-4" d="M344.57,547.4a9.54,9.54,0,0,1-5.78-1.9c-4.79-3.53-7.14-11.71-6.62-23L338.45,385c1.45-31.66,24-70.08,40.93-69.5l73.25,2.1c5.34.15,9.13,4.08,11,11.37,3.79,15.06-1.91,40.38-13.56,60.21L370.49,524.55C362,539.09,352.26,547.4,344.57,547.4Zm34.5-229.24c-15.87,0-37.64,37.31-39,67l-6.29,137.48c-.46,10.11,1.56,17.36,5.68,20.4,7.35,5.43,19.63-3,29.87-20.37l79.54-135.38c12.71-21.64,16.28-45.23,13.23-57.34-1.57-6.23-4.85-9.59-9.49-9.73l-73.26-2.09Z"/><path class="cls-4" d="M345.88,563.09a10.09,10.09,0,0,1-5.27-1.45c-5.25-3.12-8.19-11.25-8.28-22.89l-1.14-145.11c-.26-33.39,22.42-76.94,41.13-79l81.21-8.86.05,1.33-.05-1.33c6-.66,10.59,3.23,12.94,10.95,4.74,15.56-.07,42.05-11.7,64.41l-80.07,154C365.54,552.75,354.62,563.09,345.88,563.09Zm109-254.7a9.89,9.89,0,0,0-1.2.07l-81.21,8.86c-17.65,1.92-39.86,44.7-39.62,76.29L334,538.72c.08,10.59,2.58,17.66,7.22,20.42,8.5,5.06,21.78-5.52,32.3-25.74l80.07-154c12.51-24.05,15.24-49.14,11.48-61.49C463.11,311.67,459.6,308.39,454.84,308.39Z"/><path class="cls-4" d="M348,579.3a10.48,10.48,0,0,1-4.41-.95c-5.77-2.63-9.37-10.63-10.14-22.54l-9.79-152c-2.26-34.95,20.25-84,40.81-89l89.36-21.54c6.8-1.64,12.19,2,15.17,10.31,5.68,15.75,1.79,43.9-9.47,68.45L380,545.6C370.44,566.41,357.94,579.3,348,579.3ZM454,294.62l.12,1.32-89.36,21.54c-19.45,4.69-41.57,52.94-39.43,86l9.8,152c.7,10.91,3.8,17.91,8.95,20.26,9.78,4.46,24-8.61,34.65-31.78l79.57-173.54c10.87-23.71,14.72-50.64,9.37-65.49-2.67-7.41-7.36-10.53-13.55-9Z"/><path class="cls-4" d="M351.4,596a11.26,11.26,0,0,1-3.46-.53c-6.35-2-10.69-9.81-12.21-22l-19.79-157.9c-4.55-36.3,17.43-91.1,39.87-99.39l97.64-36.08c7.68-2.84,14,.5,17.7,9.4,6.66,15.87,3.84,45.59-6.86,72.26l-77.86,194C376.59,580.31,362.69,596,351.4,596ZM453.63,281.44l.18,1.3-97.65,36.08c-21.28,7.87-43,61.84-38.64,96.25L337.31,573c1.41,11.19,5.19,18.06,10.94,19.88,11.16,3.53,26.3-12.31,36.83-38.54l77.85-194c10.35-25.79,13.18-54.27,6.89-69.28-3.38-8.06-8.92-10.93-16-8.31Z"/><path class="cls-4" d="M356,613a13.3,13.3,0,0,1-2.19-.19c-7-1.24-12.18-8.73-14.56-21.1l-31.2-162.6c-3.18-16.58-.94-38.77,6.16-60.86,7.87-24.5,20.16-43.4,32.07-49.31l106-52.57.23,1.27-.23-1.27c8.63-4.28,15.92-1.39,20.53,8.14,7.82,16.17,6.27,46.62-3.86,75.78L394.18,565.49C384.25,594.06,368.88,613,356,613ZM459.63,267.15a15.53,15.53,0,0,0-6.9,1.8l-106,52.57c-11.52,5.72-23.44,24.11-31.11,48-6.79,21.15-9.05,43.14-6,58.82l31.2,162.6c2.2,11.46,6.76,18.11,13.19,19.25,12.64,2.22,28.57-16.7,38.76-46L467.52,349c9.66-27.78,11.3-57.72,4-72.8C468.63,270.22,464.53,267.15,459.63,267.15Z"/><path class="cls-4" d="M362,630.18h-.47c-7.77-.25-13.89-7.31-17.23-19.85l-44.11-165.8c-4.32-16.25-3.37-39,2.6-62.35,7.17-28,19.89-50.6,33.19-58.89l114.19-71.12c9.63-6,18.05-3.7,23.7,6.48,8.94,16.11,8.76,47.84-.44,78.95L403.32,574.51C393.58,607.42,376.65,630.18,362,630.18Zm88.46-376.77.28,1.25L336.53,325.77c-12.91,8-25.27,30-32.27,57.43-5.81,22.71-6.76,44.67-2.61,60.25l44.11,165.8c3.11,11.71,8.57,18,15.78,18.26,14.19.42,30.75-21.8,40.32-54.17l70.08-236.91c8.92-30.15,9.2-60.68.7-76-5.17-9.32-13-11.37-21.93-5.78Z"/><path class="cls-4" d="M369.48,647.28c-7.88,0-14.44-6.4-18.58-18.24l-58.59-167.2c-5.55-15.86-6-39.07-1.21-63.67,6.12-31.44,19-57.81,33.66-68.81L447,237.55l.34,1.21-.34-1.21c10.69-8,20.36-6.5,27.22,4.3,10.29,16.19,11.63,48.27,3.41,81.72L414,582.58c-8.88,36.17-26.48,62.74-42.78,64.6A14.24,14.24,0,0,1,369.48,647.28Zm90.33-412.13c-3.79,0-7.89,1.6-12.17,4.82L325.43,331.78c-14.24,10.7-26.8,36.45-32.79,67.2-4.64,23.89-4.25,46.32,1.08,61.53l58.58,167.2c4.18,11.93,10.67,17.72,18.78,16.81,15.71-1.8,32.73-27.68,41.39-62.94l63.62-259c7.84-31.94,6.63-63.6-3-78.79C469.42,238,464.9,235.15,459.81,235.15Z"/><path class="cls-4" d="M378.64,664.09c-7.75,0-14.49-5.68-19.31-16.42L284.64,481.18c-6.91-15.41-8.85-39.07-5.32-64.92,4.66-34.08,17.77-65,33.41-78.84L442.59,222.7c11.6-10.25,22.94-9.69,31.11,1.51,11.58,15.89,14.6,48.87,7.71,84L426.23,589.44c-7.61,38.82-25.33,69.26-43.08,74A17.43,17.43,0,0,1,378.64,664.09ZM443,223.87l.39,1.18L313.5,339.77c-15.24,13.46-28,43.71-32.6,77.07-3.43,25.1-1.59,48,5,62.76l74.69,166.49c5.43,12.1,13.13,17.2,22.26,14.75,17.17-4.61,34.36-34.31,41.8-72.22l55.18-281.2c6.69-34.12,3.86-66-7.21-81.16-7.75-10.63-18.15-11.06-29.3-1.21Z"/><path class="cls-4" d="M389.55,680.34c-7.57,0-14.41-4.92-19.79-14.42L277.28,502.61c-8.42-14.88-12-39-9.79-66.19,3-36.86,15.71-71.69,32.41-88.74l137-139.9.42,1.14-.42-1.14c12.66-12.93,25.55-13.66,35.36-2,13,15.43,17.86,49.11,12.48,85.8L440.21,594.79c-6,41.11-23.54,75.56-42.58,83.78A20.33,20.33,0,0,1,389.55,680.34Zm48.19-470.29-137,139.89c-16.3,16.65-28.72,50.73-31.65,86.84-2.14,26.38,1.27,49.72,9.37,64l92.47,163.32c6.82,12,16.15,16.25,26.28,11.88,18.48-8,35.51-41.62,41.42-81.83L483.15,291c5.23-35.63.58-68.22-11.85-83-9.25-11-21.48-10.23-33.56,2.11Z"/><path class="cls-4" d="M402.32,695.77c-7.32,0-14.16-4.14-19.95-12.29l-112-157.3c-10.15-14.25-15.51-38.86-14.73-67.51,1.07-39.25,13.09-77.83,30.63-98.3L429.69,193l.47,1.08-.47-1.08c13.71-16,28.28-18.32,40-6.37,14.69,15,21.49,48.34,17.75,87L456,598.28c-4.23,43.65-20.75,81.27-41.12,93.62A24.21,24.21,0,0,1,402.32,695.77Zm51.27-514c-7.45,0-15.33,4.51-23,13.41L287.24,362.54c-17.15,20-28.91,57.79-29.95,96.25-.76,27.83,4.4,51.65,14.16,65.36l112,157.3c8.55,12,19.53,14.84,30.9,7.95,19.84-12,35.94-48.81,40.08-91.54l31.42-324.67c3.64-37.56-2.88-69.86-17-84.3C464.15,184.12,459,181.76,453.59,181.76Z"/><path class="cls-4" d="M417.06,710.05c-7,0-13.68-3.37-19.71-10.07L264.15,551.93C252,538.47,244.66,513.36,243.89,483c-1-41.17,10-83.29,28.11-107.3L420.87,178.57c14.68-19.43,31.05-23.71,44.91-11.72,16.35,14.13,25.38,47.66,23.57,87.51l-15.67,345.2c-2.05,45-17.55,86.51-38.58,103.27C429.05,707.65,423,710.05,417.06,710.05Zm4.32-530.44.51,1L273,377.8c-17.74,23.49-28.54,64.75-27.52,105.11.75,29.48,7.88,53.83,19.56,66.81l133.2,148c10.62,11.81,23.46,12.76,36.13,2.66,20.53-16.36,35.67-57,37.67-101.06l15.67-345.21c1.76-38.77-6.94-71.33-22.7-84.95-13.27-11.47-29-7.3-43.14,11.44Z"/><path class="cls-4" d="M433.86,722.84c-6.52,0-12.92-2.6-19-7.83L258.75,579.86c-14.38-12.44-24.05-38.06-26.55-70.3-3.31-42.64,6.46-88,24.88-115.58L410.26,164.77c15.52-23.23,33.79-29.87,50.11-18.21,18.16,13,29.64,46.43,30,87.33l3,364.35c.38,46.53-13.31,90.65-34.87,112.4C450.4,718.75,442,722.84,433.86,722.84ZM410.8,165.76l.55,1L258.17,396c-18,27-27.61,71.46-24.37,113.27,2.44,31.37,11.8,56.26,25.7,68.29L415.65,712.65c13.08,11.32,28,9.8,42-4.29,21.09-21.26,34.48-64.48,34.1-110.08l-3-364.36c-.33-39.83-11.44-72.37-29-84.91-15.71-11.23-33.34-4.76-48.37,17.74Z"/><path class="cls-4" d="M452.59,733.62a31.52,31.52,0,0,1-17.39-5.5L254.4,610c-17-11.11-29.29-37.2-33.75-71.6-5.74-44.31,2.3-91.44,21-123L397.7,151.9c16-26.95,36.7-36.65,55.47-26,20.47,11.65,34.33,43.92,37.08,86.34L515,593.89c3,46.78-8.74,94.16-30,120.71C475,727.16,463.71,733.62,452.59,733.62ZM398.28,152.83l.58.93L242.8,417.23c-18.32,30.93-26.2,77.13-20.56,120.58,4.34,33.52,16.28,58.91,32.76,69.68L435.79,725.64c15.73,10.28,33.31,5.48,48.23-13.17,20.81-26,32.33-72.42,29.36-118.3L488.64,212.55c-2.68-41.36-16.14-72.8-36-84.1-18.16-10.34-38.27-.88-53.78,25.31Z"/><path class="cls-4" d="M473.51,742.27a35.48,35.48,0,0,1-15.09-3.48L251.35,642.18c-20-9.33-35.32-35.79-42-72.6-8.17-44.86-1.85-94.46,16.5-129.46L383,140.29c16.39-31.25,39.15-44.37,60.87-35.1,22.72,9.7,39.53,41.26,44.95,84.42l49.86,396.44c5.93,47.24-3.24,96.27-24,128C502.66,732.53,488.18,742.27,473.51,742.27ZM383.66,141.16l.61.87L227.05,441.87c-18,34.31-24.19,83-16.17,127,6.54,35.91,21.46,61.72,40.91,70.8l207.07,96.61c19,8.86,39,0,54.8-24.17C534,681,543,632.92,537.13,586.59L487.28,190.15C482,148,465.61,117.21,443.5,107.77c-21.11-9-43.25,3.8-59.23,34.26Z"/><path class="cls-4" d="M496.46,748.22a40.8,40.8,0,0,1-11.71-1.75l-234.9-70.05c-23.44-7-42.23-33.63-51.55-73.08-10.61-45-6.22-96.64,11.46-134.87L366.14,130.33l.64.81-.64-.81c16.52-35.72,41.22-52.81,66.08-45.7,25.26,7.21,45.36,37.65,53.78,81.43l78.52,408.2c8.94,46.49,2.48,97.83-16.87,134C533.76,734.21,515.57,748.22,496.46,748.22ZM421.13,85.71c-20.46,0-40,16.53-53.7,46.23L211.05,470.08c-17.34,37.51-21.65,88.2-11.24,132.29,9.11,38.57,27.46,64.6,50.33,71.42L485,743.85c22.69,6.77,45.07-6.85,61.4-37.37,19-35.45,25.3-85.81,16.53-131.42l-78.52-408.2c-8.23-42.8-27.86-72.56-52.5-79.61A39.45,39.45,0,0,0,421.13,85.71Z"/><path class="cls-4" d="M520.91,751a45.73,45.73,0,0,1-6.58-.48l-264.13-38c-27-3.88-50.31-31.07-62.48-72.73-13.24-45.31-11-97.35,5.94-139.2L346.84,122.43l.68.74-.68-.74c16.29-40.22,42.79-61.81,70.89-57.77s51.91,32.88,63.71,77.14L592.38,558c12.28,46,9,97.93-8.84,138.77C568.5,731.25,545.45,751,520.91,751ZM411.05,66.85c-25,0-48.17,20.8-62.86,57.06L195,502.09c-16.63,41.06-18.81,92.11-5.82,136.56,11.92,40.81,34.78,67.44,61.16,71.23l264.13,38c26.37,3.79,51.71-15.9,67.75-52.68,17.48-40.07,20.72-91,8.68-136.15L480,142.87c-11.56-43.35-34.87-71.59-62.37-75.55A45.16,45.16,0,0,0,411.05,66.85Z"/><path class="cls-4" d="M547.29,750.37H252.7c-31.3,0-59.33-26.62-75-71.21s-15.64-97.83,0-142.42L325,117.05c15.65-44.58,43.68-71.21,75-71.21h0c31.29,0,59.32,26.62,75,71.21l147.3,419.69c15.65,44.59,15.65,97.83,0,142.42S578.59,750.37,547.29,750.37ZM325.72,117.72l.7.66L179.13,538.07c-15.36,43.76-15.36,96,0,139.75S222,747.7,252.7,747.7H547.29c30.72,0,58.22-26.12,73.57-69.87s15.36-96,0-139.76L473.57,118.38C458.21,74.63,430.71,48.51,400,48.51s-58.22,26.12-73.58,69.87Z"/></g><rect class="cls-5" x="121.35" y="178.2" height="525.63"/><rect class="cls-5" x="156.88" y="486.26" height="71.06" transform="translate(-364.91 678.66) rotate(-90)"/><text/><text class="cls-6" transform="translate(105.59 286.28)">Make a <tspan x="0" y="112.13">Dream.</tspan></text><text class="cls-7" transform="translate(196.34 531.55)"><tspan xml:space="preserve"> “An investment in knowledge pays the </tspan><tspan x="0" y="31.35">best interest.”</tspan></text><text class="cls-7" transform="translate(274.5 650.08)">Developer</text><text class="cls-8" transform="translate(274.5 622.39)">Sarthak Kumar</text><g class="cls-9"><g class="cls-10"></g></g><circle class="cls-11" cx="121.35" cy="124.91" r="31.87"/><text class="cls-12" transform="translate(103.84 164.06)">“</text></svg>