<svg id="svg" data-name="Layer 1" xmlns="http://www.w3.org/2000/svg" viewBox="0 0 590 484.7">
  <g id="blobs">
    <path id="blob-1" d="M543.41 297.09 C543.41 375.19 517.32 442.37 425.71 435.79 367.1 431.45 318.86 401.43 283.52 401.43 240.52 401.43 183.83 430.9 138.72 426.56 64.94 419.28 46.48 361.26 46.48 290.06 46.48 238.18 68.44 176.31 95.81 142.16 115.68 112.48 155.01 68.73 220.05 60.96 270.63 54.66 315.7 86.15 358.65 105.65 411.74 129.38 458.06 116.65 483.71 126.17 534.14 139.12 543.41 259.15 543.41 297.09 " fill="#eddfeb" data-original="M545.5,299c0,80.3-28.6,150.4-126.4,139.4-63.2-7.1-109.3-37.3-142.6-37.3-45.7,0-105.4,29.3-146.8,22.2-69-11.7-85.3-66.8-85.3-135.8,0-56.3,25.5-99.9,46.2-140.8,18.3-36.1,55.9-97.8,125.1-100.5,53.3-2.1,97.4,50.5,138.4,74.2,49.9,28.8,98.4-1.8,126,1.3C537.9,127.9,545.5,265.5,545.5,299Z"></path>
    <path id="blob-3" d="M55.1,300.7c0,80.3,27.4,150.4,121,139.4,60.5-7.1,104.7-37.3,136.5-37.3,43.8,0,100.9,29.3,140.5,22.2,66-11.7,81.7-66.8,81.7-135.8,0-56.3-16.2-103.6-36.1-144.5-17.6-36.1-54.9-97.4-121.2-100.1-51-2.1-100.1,53.8-139.4,77.5-47.8,28.8-94.3-1.8-120.7,1.3C62.4,129.6,55.1,267.1,55.1,300.7Z" fill="#eddfeb"></path>
  </g>
  <g id="confetti" class="confetti">
    <rect x="284" y="230.4" width="17.7" height="17.67" rx="4" ry="4" fill="#543093" data-svg-origin="284 230.40000915527344" transform="matrix(-0.26697,-0.9637,0.9637,-0.26697,-36.636444858555194,594.1865998326512)" style="visibility: inherit; opacity: 1;"></rect>
    <rect x="284" y="230.4" width="17.7" height="17.67" rx="4" ry="4" fill="#543093" data-svg-origin="284 230.40000915527344" transform="matrix(0.99093,0.13431,-0.13431,0.99093,37.490131298644236,-39.656756730645434)" style="visibility: inherit; opacity: 1;"></rect>
    <rect x="285.4" y="231.7" width="17.7" height="17.67" rx="4" ry="4" fill="#fff" data-svg-origin="285.3999938964844 231.6999969482422" transform="matrix(0.34132,0.93994,-0.93994,0.34132,362.1320589846139,-94.16198839552098)" style="visibility: inherit; opacity: 1;"></rect>
    <rect x="285.4" y="231.7" width="17.7" height="17.67" rx="4" ry="4" fill="#fff" data-svg-origin="285.3999938964844 231.6999969482422" transform="matrix(-0.10338,-0.99464,0.99464,-0.10338,-94.5002015148373,499.44773837135386)" style="visibility: inherit; opacity: 1;"></rect>
    <rect x="285.4" y="230.1" width="17.7" height="17.67" rx="4" ry="4" fill="#d960ae" data-svg-origin="285.3999938964844 230.09999084472656" transform="matrix(-0.55807,0.82978,-0.82978,-0.55807,550.1718532420693,132.00125548358776)" style="visibility: inherit; opacity: 1;"></rect>
    <rect x="285.4" y="230.1" width="17.7" height="17.67" rx="4" ry="4" fill="#d960ae" data-svg-origin="285.3999938964844 230.09999084472656" transform="matrix(0.99814,-0.06085,0.06085,0.99814,-89.56373793997521,253.38844121373154)" style="visibility: inherit; opacity: 1;"></rect>
    <rect x="285.4" y="231.7" width="17.7" height="17.67" rx="4" ry="4" fill="#f3c1df" data-svg-origin="285.3999938964844 231.6999969482422" transform="matrix(-0.70832,0.70588,-0.70588,-0.70832,622.680595682641,104.95191316013403)" style="visibility: inherit; opacity: 1;"></rect>
    <rect x="285.4" y="231.7" width="17.7" height="17.67" rx="4" ry="4" fill="#f3c1df" data-svg-origin="285.3999938964844 231.6999969482422" transform="matrix(0.64265,-0.76615,0.76615,0.64265,131.28334684835173,361.1970882182445)" style="visibility: inherit; opacity: 1;"></rect>
    <circle cx="294.1" cy="241.3" r="9.7" fill="#543093" data-svg-origin="284.3999938964844 231.60000610351562" transform="matrix(0.98677,0.16206,-0.16206,0.98677,41.450008839909906,-36.55488677678796)" style="visibility: inherit; opacity: 1;"></circle>
    <circle cx="294.1" cy="243.6" r="12" fill="none" stroke="#fff" stroke-miterlimit="10" stroke-width="2" data-svg-origin="282.1000061035156 231.59999084472656" transform="matrix(0.9996,-0.02809,0.02809,0.9996,-86.03012266870311,243.8147247376529)" style="visibility: inherit; opacity: 1;"></circle>
    <circle cx="294.2" cy="243.6" r="12" fill="#fff" data-svg-origin="282.1999816894531 231.59999084472656" transform="matrix(0.86328,-0.50472,0.50472,0.86328,15.28164580730197,383.0419320128598)" style="visibility: inherit; opacity: 1;"></circle>
    <circle cx="294.2" cy="243.6" r="12" fill="none" stroke="#fff" stroke-miterlimit="10" stroke-width="2" data-svg-origin="282.1999816894531 231.59999084472656" transform="matrix(-0.93538,-0.35364,0.35364,-0.93538,338.12651201892277,607.338724366002)" style="visibility: inherit; opacity: 1;"></circle>
    <circle cx="294.2" cy="243.6" r="12" fill="none" stroke="#d960ae" stroke-miterlimit="10" stroke-width="2" data-svg-origin="282.1999816894531 231.59999084472656" transform="matrix(-0.99331,0.11541,-0.11541,-0.99331,475.43207894079427,468.35703688901293)" style="visibility: inherit; opacity: 1;"></circle>
    <circle cx="294.2" cy="243.6" r="12" fill="none" stroke="#d960ae" stroke-miterlimit="10" stroke-width="2" data-svg-origin="282.1999816894531 231.59999084472656" transform="matrix(-0.64068,-0.7678,0.7678,-0.64068,256.069673994696,439.4980037481047)" style="visibility: inherit; opacity: 1;"></circle>
    <circle cx="295.9" cy="242.1" r="12" fill="none" stroke="#543093" stroke-miterlimit="10" stroke-width="2" data-svg-origin="283.8999938964844 230.09999084472656" transform="matrix(-0.81554,0.57869,-0.57869,-0.81554,604.9638947809783,162.99034651742917)" style="visibility: inherit; opacity: 1;"></circle>
    <circle cx="295.9" cy="242.1" r="12" fill="none" stroke="#543093" stroke-miterlimit="10" stroke-width="2" data-svg-origin="283.8999938964844 230.09999084472656" transform="matrix(0.22606,-0.97411,0.97411,0.22606,-48.30410401476361,263.01841339144426)" style="visibility: inherit; opacity: 1;"></circle>
    <circle cx="294.1" cy="241.3" r="9.7" fill="#d960ae" data-svg-origin="284.3999938964844 231.60000610351562" transform="matrix(-0.99314,0.11689,-0.11689,-0.99314,630.4892241178321,543.0167676198787)" style="visibility: inherit; opacity: 1;"></circle>
    <circle cx="294.1" cy="241.3" r="9.7" fill="#d960ae" data-svg-origin="284.3999938964844 231.60000610351562" transform="matrix(-0.99057,0.13695,-0.13695,-0.99057,710.8771726942556,383.19981339478164)" style="visibility: inherit; opacity: 1;"></circle>
    <circle cx="292.9" cy="241.3" r="9.7" fill="#fff" data-svg-origin="283.1999816894531 231.60000610351562" transform="matrix(-0.71614,-0.69795,0.69795,-0.71614,246.04669091666779,460.5075062880014)" style="visibility: inherit; opacity: 1;"></circle>
    <circle cx="294.1" cy="241.3" r="9.7" fill="#d960ae" data-svg-origin="284.3999938964844 231.60000610351562" transform="matrix(-0.82605,-0.56359,0.56359,-0.82605,517.5943599914588,508.6314638804164)" style="visibility: inherit; opacity: 1;"></circle>
    <circle cx="294.1" cy="241.3" r="9.7" fill="#543093" data-svg-origin="284.3999938964844 231.60000610351562" transform="matrix(-0.69766,-0.71642,0.71642,-0.69766,420.22995752544927,714.8321660301397)" style="visibility: inherit; opacity: 1;"></circle>
    <circle cx="294.1" cy="241.3" r="9.7" fill="#d960ae" data-svg-origin="284.3999938964844 231.60000610351562" transform="matrix(-0.99996,0.00842,-0.00842,-0.99996,660.7207557514186,374.51330920801314)" style="visibility: inherit; opacity: 1;"></circle>
    <circle cx="294.1" cy="241.3" r="9.7" fill="#543093" data-svg-origin="284.3999938964844 231.60000610351562" transform="matrix(0.80747,-0.5899,0.5899,0.80747,77.41639269985768,53.59259888483629)" style="visibility: inherit; opacity: 1;"></circle>
    <circle cx="294.1" cy="241.3" r="9.7" fill="#543093" data-svg-origin="284.3999938964844 231.60000610351562" transform="matrix(0.98807,-0.15398,0.15398,0.98807,-10.942259794962567,-196.35700784482484)" style="visibility: inherit; opacity: 1;"></circle>
    <path d="M300.9,243.2l-3-3a1.5,1.5,0,0,1,0-2.1l3-3a2,2,0,0,0,.3-2.5,1.9,1.9,0,0,0-2.9-.3l-3.1,3.1a1.5,1.5,0,0,1-2.1,0l-3-3a2,2,0,0,0-2.5-.3,1.9,1.9,0,0,0-.3,2.9l3.1,3.1a1.5,1.5,0,0,1,0,2.1l-3,3a2,2,0,0,0-.3,2.5,1.9,1.9,0,0,0,2.9.3l3.1-3.1a1.5,1.5,0,0,1,2.1,0l3.1,3.1a1.9,1.9,0,0,0,2.9-.3A2,2,0,0,0,300.9,243.2Z" fill="#f3c1df" data-svg-origin="286.7621154785156 231.76211547851562" transform="matrix(0.67457,0.7382,-0.7382,0.67457,258.87961118990467,-103.6935289524042)" style="visibility: inherit; opacity: 1;"></path>
    <path d="M300.9,243.2l-3-3a1.5,1.5,0,0,1,0-2.1l3-3a2,2,0,0,0,.3-2.5,1.9,1.9,0,0,0-2.9-.3l-3.1,3.1a1.5,1.5,0,0,1-2.1,0l-3-3a2,2,0,0,0-2.5-.3,1.9,1.9,0,0,0-.3,2.9l3.1,3.1a1.5,1.5,0,0,1,0,2.1l-3,3a2,2,0,0,0-.3,2.5,1.9,1.9,0,0,0,2.9.3l3.1-3.1a1.5,1.5,0,0,1,2.1,0l3.1,3.1a1.9,1.9,0,0,0,2.9-.3A2,2,0,0,0,300.9,243.2Z" fill="#543093" data-svg-origin="286.7621154785156 231.76211547851562" transform="matrix(-0.93889,0.34421,-0.34421,-0.93889,692.0823473497678,446.3352942485609)" style="visibility: inherit; opacity: 1;"></path>
    <path d="M300.9,243.2l-3-3a1.5,1.5,0,0,1,0-2.1l3-3a2,2,0,0,0,.3-2.5,1.9,1.9,0,0,0-2.9-.3l-3.1,3.1a1.5,1.5,0,0,1-2.1,0l-3-3a2,2,0,0,0-2.5-.3,1.9,1.9,0,0,0-.3,2.9l3.1,3.1a1.5,1.5,0,0,1,0,2.1l-3,3a2,2,0,0,0-.3,2.5,1.9,1.9,0,0,0,2.9.3l3.1-3.1a1.5,1.5,0,0,1,2.1,0l3.1,3.1a1.9,1.9,0,0,0,2.9-.3A2,2,0,0,0,300.9,243.2Z" fill="#d960ae" data-svg-origin="286.7621154785156 231.76211547851562" transform="matrix(0.75642,0.65407,-0.65407,0.75642,247.80089838456306,-120.63788978434805)" style="visibility: inherit; opacity: 1;"></path>
    <path d="M300.9,243.2l-3-3a1.5,1.5,0,0,1,0-2.1l3-3a2,2,0,0,0,.3-2.5,1.9,1.9,0,0,0-2.9-.3l-3.1,3.1a1.5,1.5,0,0,1-2.1,0l-3-3a2,2,0,0,0-2.5-.3,1.9,1.9,0,0,0-.3,2.9l3.1,3.1a1.5,1.5,0,0,1,0,2.1l-3,3a2,2,0,0,0-.3,2.5,1.9,1.9,0,0,0,2.9.3l3.1-3.1a1.5,1.5,0,0,1,2.1,0l3.1,3.1a1.9,1.9,0,0,0,2.9-.3A2,2,0,0,0,300.9,243.2Z" fill="#f3c1df" data-svg-origin="286.7621154785156 231.76211547851562" transform="matrix(-0.63248,-0.77457,0.77457,-0.63248,428.46360779863926,522.2074843558255)" style="visibility: inherit; opacity: 1;"></path>
    <path d="M300.9,243.2l-3-3a1.5,1.5,0,0,1,0-2.1l3-3a2,2,0,0,0,.3-2.5,1.9,1.9,0,0,0-2.9-.3l-3.1,3.1a1.5,1.5,0,0,1-2.1,0l-3-3a2,2,0,0,0-2.5-.3,1.9,1.9,0,0,0-.3,2.9l3.1,3.1a1.5,1.5,0,0,1,0,2.1l-3,3a2,2,0,0,0-.3,2.5,1.9,1.9,0,0,0,2.9.3l3.1-3.1a1.5,1.5,0,0,1,2.1,0l3.1,3.1a1.9,1.9,0,0,0,2.9-.3A2,2,0,0,0,300.9,243.2Z" fill="#fff" data-svg-origin="286.7621154785156 231.76211547851562" transform="matrix(0.33279,0.94299,-0.94299,0.33279,395.9914159613818,-162.77551024052838)" style="visibility: inherit; opacity: 1;"></path>
    <path d="M300.9,243.2l-3-3a1.5,1.5,0,0,1,0-2.1l3-3a2,2,0,0,0,.3-2.5,1.9,1.9,0,0,0-2.9-.3l-3.1,3.1a1.5,1.5,0,0,1-2.1,0l-3-3a2,2,0,0,0-2.5-.3,1.9,1.9,0,0,0-.3,2.9l3.1,3.1a1.5,1.5,0,0,1,0,2.1l-3,3a2,2,0,0,0-.3,2.5,1.9,1.9,0,0,0,2.9.3l3.1-3.1a1.5,1.5,0,0,1,2.1,0l3.1,3.1a1.9,1.9,0,0,0,2.9-.3A2,2,0,0,0,300.9,243.2Z" fill="#543093" data-svg-origin="286.7621154785156 231.76211547851562" transform="matrix(0.99993,-0.0113,0.0113,0.99993,238.5073640788517,67.61354914802413)" style="visibility: inherit; opacity: 1;"></path>
    <path d="M300.9,243.1l-3-3a1.5,1.5,0,0,1,0-2.1l3-3a2,2,0,0,0,.3-2.5,1.9,1.9,0,0,0-2.9-.3l-3.1,3.1a1.5,1.5,0,0,1-2.1,0l-3-3a2,2,0,0,0-2.5-.3,1.9,1.9,0,0,0-.3,2.9l3.1,3.1a1.5,1.5,0,0,1,0,2.1l-3,3a2,2,0,0,0-.3,2.5,1.9,1.9,0,0,0,2.9.3l3.1-3.1a1.5,1.5,0,0,1,2.1,0l3.1,3.1a1.9,1.9,0,0,0,2.9-.3A2,2,0,0,0,300.9,243.1Z" fill="#d960ae" data-svg-origin="286.7621154785156 231.66213989257812" transform="matrix(0.60097,0.79926,-0.79926,0.60097,305.0251953522315,-100.31723322647608)" style="visibility: inherit; opacity: 1;"></path>
    <path d="M300.9,243.1l-3-3a1.5,1.5,0,0,1,0-2.1l3-3a2,2,0,0,0,.3-2.5,1.9,1.9,0,0,0-2.9-.3l-3.1,3.1a1.5,1.5,0,0,1-2.1,0l-3-3a2,2,0,0,0-2.5-.3,1.9,1.9,0,0,0-.3,2.9l3.1,3.1a1.5,1.5,0,0,1,0,2.1l-3,3a2,2,0,0,0-.3,2.5,1.9,1.9,0,0,0,2.9.3l3.1-3.1a1.5,1.5,0,0,1,2.1,0l3.1,3.1a1.9,1.9,0,0,0,2.9-.3A2,2,0,0,0,300.9,243.1Z" fill="#f3c1df" data-svg-origin="286.7621154785156 231.66213989257812" transform="matrix(0.40244,0.91544,-0.91544,0.40244,346.5848251461728,-96.51030956314031)" style="visibility: inherit; opacity: 1;"></path>
    <path d="M300.9,243.2l-3-3a1.5,1.5,0,0,1,0-2.1l3-3a2,2,0,0,0,.3-2.5,1.9,1.9,0,0,0-2.9-.3l-3.1,3.1a1.5,1.5,0,0,1-2.1,0l-3-3a2,2,0,0,0-2.5-.3,1.9,1.9,0,0,0-.3,2.9l3.1,3.1a1.5,1.5,0,0,1,0,2.1l-3,3a2,2,0,0,0-.3,2.5,1.9,1.9,0,0,0,2.9.3l3.1-3.1a1.5,1.5,0,0,1,2.1,0l3.1,3.1a1.9,1.9,0,0,0,2.9-.3A2,2,0,0,0,300.9,243.2Z" fill="#543093" data-svg-origin="286.7621154785156 231.76211547851562" transform="matrix(0.78755,0.61624,-0.61624,0.78755,189.86627792152444,-149.95863815736627)" style="visibility: inherit; opacity: 1;"></path>
    <path d="M300.9,243.2l-3-3a1.5,1.5,0,0,1,0-2.1l3-3a2,2,0,0,0,.3-2.5,1.9,1.9,0,0,0-2.9-.3l-3.1,3.1a1.5,1.5,0,0,1-2.1,0l-3-3a2,2,0,0,0-2.5-.3,1.9,1.9,0,0,0-.3,2.9l3.1,3.1a1.5,1.5,0,0,1,0,2.1l-3,3a2,2,0,0,0-.3,2.5,1.9,1.9,0,0,0,2.9.3l3.1-3.1a1.5,1.5,0,0,1,2.1,0l3.1,3.1a1.9,1.9,0,0,0,2.9-.3A2,2,0,0,0,300.9,243.2Z" fill="#d960ae" data-svg-origin="286.7621154785156 231.76211547851562" transform="matrix(0.5826,0.81275,-0.81275,0.5826,305.7341282940619,-98.64840472715977)" style="visibility: inherit; opacity: 1;"></path>
    <path d="M300.9,243.2l-3-3a1.5,1.5,0,0,1,0-2.1l3-3a2,2,0,0,0,.3-2.5,1.9,1.9,0,0,0-2.9-.3l-3.1,3.1a1.5,1.5,0,0,1-2.1,0l-3-3a2,2,0,0,0-2.5-.3,1.9,1.9,0,0,0-.3,2.9l3.1,3.1a1.5,1.5,0,0,1,0,2.1l-3,3a2,2,0,0,0-.3,2.5,1.9,1.9,0,0,0,2.9.3l3.1-3.1a1.5,1.5,0,0,1,2.1,0l3.1,3.1a1.9,1.9,0,0,0,2.9-.3A2,2,0,0,0,300.9,243.2Z" fill="#f3c1df" data-svg-origin="286.7621154785156 231.76211547851562" transform="matrix(0.98699,-0.16073,0.16073,0.98699,177.73424411901914,170.34883925264398)" style="visibility: inherit; opacity: 1;"></path>
    <path d="M300.9,243.2l-3-3a1.5,1.5,0,0,1,0-2.1l3-3a2,2,0,0,0,.3-2.5,1.9,1.9,0,0,0-2.9-.3l-3.1,3.1a1.5,1.5,0,0,1-2.1,0l-3-3a2,2,0,0,0-2.5-.3,1.9,1.9,0,0,0-.3,2.9l3.1,3.1a1.5,1.5,0,0,1,0,2.1l-3,3a2,2,0,0,0-.3,2.5,1.9,1.9,0,0,0,2.9.3l3.1-3.1a1.5,1.5,0,0,1,2.1,0l3.1,3.1a1.9,1.9,0,0,0,2.9-.3A2,2,0,0,0,300.9,243.2Z" fill="#fff" data-svg-origin="286.7621154785156 231.76211547851562" transform="matrix(-0.52873,0.84878,-0.84878,-0.52873,712.9900479031029,144.0972113115455)" style="visibility: inherit; opacity: 1;"></path>
    <path d="M300.9,243.1l-3-3a1.5,1.5,0,0,1,0-2.1l3-3a2,2,0,0,0,.3-2.5,1.9,1.9,0,0,0-2.9-.3l-3.1,3.1a1.5,1.5,0,0,1-2.1,0l-3-3a2,2,0,0,0-2.5-.3,1.9,1.9,0,0,0-.3,2.9l3.1,3.1a1.5,1.5,0,0,1,0,2.1l-3,3a2,2,0,0,0-.3,2.5,1.9,1.9,0,0,0,2.9.3l3.1-3.1a1.5,1.5,0,0,1,2.1,0l3.1,3.1a1.9,1.9,0,0,0,2.9-.3A2,2,0,0,0,300.9,243.1Z" fill="#d960ae" data-svg-origin="286.7621154785156 231.66213989257812" transform="matrix(-0.04418,-0.99902,0.99902,-0.04418,247.13562136026545,577.4637581518069)" style="visibility: inherit; opacity: 1;"></path>
    <path d="M300.9,243.1l-3-3a1.5,1.5,0,0,1,0-2.1l3-3a2,2,0,0,0,.3-2.5,1.9,1.9,0,0,0-2.9-.3l-3.1,3.1a1.5,1.5,0,0,1-2.1,0l-3-3a2,2,0,0,0-2.5-.3,1.9,1.9,0,0,0-.3,2.9l3.1,3.1a1.5,1.5,0,0,1,0,2.1l-3,3a2,2,0,0,0-.3,2.5,1.9,1.9,0,0,0,2.9.3l3.1-3.1a1.5,1.5,0,0,1,2.1,0l3.1,3.1a1.9,1.9,0,0,0,2.9-.3A2,2,0,0,0,300.9,243.1Z" fill="#f3c1df" data-svg-origin="286.7621154785156 231.66213989257812" transform="matrix(-0.12872,-0.99167,0.99167,-0.12872,-57.950223407818214,444.93789293656215)" style="visibility: inherit; opacity: 1;"></path>
  </g>
  <g id="envelope" data-svg-origin="136.59999084472656 87.5999984741211" transform="matrix(1,0,0,1,0,-1.799999999999406)">
    <path id="Background" d="M452.9,376.3a26.1,26.1,0,0,1-25.5,20.8H162.6a26.1,26.1,0,0,1-26-26V193.2a26.1,26.1,0,0,1,26-26H427.4a26.1,26.1,0,0,1,26,26V371.1a25.9,25.9,0,0,1-.5,5.2" fill="#d960ae" stroke="#543093" stroke-miterlimit="10" stroke-width="5"></path>
    <g id="paper-group" data-svg-origin="157.3000030517578 87.5999984741211" transform="matrix(1,0,0,1,0,0)">
      <rect id="paper" x="157.3" y="87.6" width="275.3" height="266.33" rx="26" ry="26" fill="#fff" stroke="#543093" stroke-miterlimit="10" stroke-width="5"></rect>
      <g id="face">
        <g id="mouth" data-svg-origin="271.1000061035156 206.76193237304688" transform="matrix(1,0,0,1,0,10)">
          <path id="mouth-scared" d="M275,220a18.7,18.7,0,0,1,35.9.1" fill="none" stroke="#543093" stroke-linecap="round" stroke-miterlimit="10" stroke-width="5"></path>
          <path id="mouth-sad" d="M258.8,231.9c3.9-14.5,17.7-25.2,34-25.2s30.3,10.8,34.1,25.4" fill="none" stroke="#543093" stroke-linecap="round" stroke-miterlimit="10" stroke-width="5"></path>
          <path id="mouth-worry" d="M323.8,208.3c3.9,0,6.7,3.9,5.9,7.9a37.5,37.5,0,0,1-73.5,0c-0.9-4.1,2-7.9,5.9-7.9h61.7Z" fill="none" stroke="#543093" stroke-linecap="round" stroke-miterlimit="10" stroke-width="5" data-original="M271.1,218.7c10-11.1,28.2-15,43.6-9.4" style="stroke: rgba(255, 255, 255, 0); fill: rgb(84, 48, 147);"></path>
          <path id="mouth-happy" d="M259.3,207c3.9,14.5,17.7,25.2,34,25.2s30.3-10.8,34.1-25.4" fill="none" stroke="#543093" stroke-linecap="round" stroke-miterlimit="10" stroke-width="5"></path>
          <g id="mouth-laughing">
            <path id="open-mouth" d="M323.8,208.3c3.9,0,6.7,3.9,5.9,7.9a37.5,37.5,0,0,1-73.5,0c-0.9-4.1,2-7.9,5.9-7.9h61.7Z" fill="#543093" opacity="0.98"></path>
            <path id="tongue" d="M293.2,241.1c6.9,0,13.1-2.3,17.3-5.9a2.1,2.1,0,0,0,.5-2.6c-3.1-5.8-9.9-9.8-17.8-9.8s-14.7,4-17.8,9.8a2.1,2.1,0,0,0,.5,2.5C280,238.8,286.2,241.1,293.2,241.1Z" fill="#d960ae" style="display: block;"></path>
          </g>
        </g>
        <g id="eye-group" data-svg-origin="216.39999389648438 133.6999969482422" transform="matrix(1,0,0,1,0,10)">
          <g id="eyes" class="eyes" style="transform: translate(1.8px, 16.4px);">
            <path stroke-width="5" stroke-miterlimit="10" stroke-linecap="round" fill="#543093" id="eye-right" d="M332.2,174c0-8.3,7.5-15,16.8-15s16.8,6.7,16.8,15" data-original="M360.2 172.8 C360.2 180.42 355.18 186.6 349 186.6 342.81 186.6 337.8 180.42 337.8 172.8 337.8 165.17 342.81 159 349 159 355.18 159 360.2 165.17 360.2 172.8 z" style="fill: rgba(255, 255, 255, 0); stroke: rgb(84, 48, 147);"></path>
            <path stroke-width="5" stroke-miterlimit="10" stroke-linecap="round" fill="#543093" id="eye-left" d="M218.7,174c0-8.3,7.5-15,16.8-15s16.8,6.7,16.8,15" data-original="M246.7 172.8 C246.7 180.42 241.68 186.6 235.5 186.6 229.31 186.6 224.3 180.42 224.3 172.8 224.3 165.17 229.31 159 235.5 159 241.68 159 246.7 165.17 246.7 172.8 z" style="fill: rgba(255, 255, 255, 0); stroke: rgb(84, 48, 147);"></path>         <path id="eyebrow-sad-right" d="M366.2,146.3c-2.6-5.3-14.8-14.1-24.3-14.7" fill="none" stroke="#543093" stroke-linecap="round" stroke-miterlimit="10" stroke-width="5" data-original="M341.9,133.7c2.6,5.3,14.8,14.1,24.3,14.7" data-svg-origin="341.8999938964844 133.69000244140625" transform="matrix(1,0,0,1,0,0)"></path>
            <path id="eyebrow-sad-left" d="M216.4,146.3c2.6-5.3,14.8-14.1,24.3-14.7" fill="none" stroke="#543093" stroke-linecap="round" stroke-miterlimit="10" stroke-width="5" data-original="M240.7,133.7c-2.6,5.3-14.8,14.1-24.3,14.7" data-svg-origin="216.38999938964844 133.69000244140625" transform="matrix(1,0,0,1,0,0)"></path>
				        
          </g>
          <g id="eyes-laughing">
     <path id="eye-laughing-right" d="M332.2,174c0-8.3,7.5-15,16.8-15s16.8,6.7,16.8,15" fill="none" stroke="#543093" stroke-linecap="round" stroke-miterlimit="10" stroke-width="5"></path>
            <path id="eye-laughing-left" d="M218.7,174c0-8.3,7.5-15,16.8-15s16.8,6.7,16.8,15" fill="none" stroke="#543093" stroke-linecap="round" stroke-miterlimit="10" stroke-width="5"></path>
          </g>
          <g id="eyebrows-happy">
            <path id="eyebrow-happy-right" d="M366.2,146.3c-2.6-5.3-14.8-14.1-24.3-14.7" fill="none" stroke="#543093" stroke-linecap="round" stroke-miterlimit="10" stroke-width="5"></path>
            <path id="eyebrow-happy-left" d="M216.4,146.3c2.6-5.3,14.8-14.1,24.3-14.7" fill="none" stroke="#543093" stroke-linecap="round" stroke-miterlimit="10" stroke-width="5"></path>
          </g>
        </g>
      </g>
    </g>
    <path id="back" d="M451.9,186.7S322.4,288.2,313.4,294.1s-27,5.8-36.9,0S137.9,186.5,137.9,186.5a23.6,23.6,0,0,0-1.3,6.7V371.1a26.1,26.1,0,0,0,26,26H427.4a26,26,0,0,0,26-26V193.2C453.4,190.7,452.5,188.9,451.9,186.7Z" fill="#f3c1df" stroke="#543093" stroke-miterlimit="10" stroke-width="5"></path>
    <g id="shadow">
      <path id="shadow-3" d="M263.3,279.7s11.3-8.1,13.1-9.3c9.9-6.5,27-5.8,36.9,0,1.7,1,13.5,9.3,13.5,9.3" fill="none" stroke="#eddfeb" stroke-linejoin="bevel" stroke-width="7"></path>
      <path id="shadow-2" d="M430.2,193.3L313.4,282.2a26.1,26.1,0,0,1-36.8,0L159.8,193.3V201l116.8,90.6c7.9,5.7,26.9,6.4,37,0l116.6-90.9v-7.4Z" fill="#eddfeb"></path>
    </g>
    <path id="shadow-1" d="M425.2,381.5h-262c-14.1,0-24.2-11-24.2-24.4v13.2c0,13.4,10.1,24.3,24.2,24.3h262c12.7,1.2,23.9-8.4,25.2-19.5a42.8,42.8,0,0,0,.5-4.9V358.1a14.7,14.7,0,0,1-.5,3.9C448,373.1,437.6,381.5,425.2,381.5Z" fill="#d960ae" opacity="0.5"></path>
    <g id="Front">
      <path id="Front-2" data-name="Front" d="M139.8,381.9s127.5-99.5,136.5-105.4,27-5.8,36.9,0S449.8,382.1,449.8,382.1" fill="none" stroke="#543093" stroke-miterlimit="10" stroke-width="5"></path>
      <path id="Front-3" data-name="Front" d="M225.4,315.3s41.9-33,51-38.9,27-5.8,36.9,0S355,307.9,355,307.9" fill="#f3c1df" stroke="#543093" stroke-miterlimit="10" stroke-width="5"></path>
    </g>
  </g>
</svg>